<mxfile host="app.diagrams.net" modified="2024-03-11T11:18:56.812Z" agent="Mozilla/5.0 (Windows NT 10.0; Win64; x64) AppleWebKit/537.36 (KHTML, like Gecko) Chrome/122.0.0.0 Safari/537.36 Edg/122.0.0.0" etag="tHhOp__Xe0ZafZe5F7wy" version="24.0.4" type="github">
  <diagram name="Page-1" id="8Xbiz-6GfpVA36QtU5hT">
    <mxGraphModel dx="660" dy="378" grid="1" gridSize="10" guides="1" tooltips="1" connect="1" arrows="1" fold="1" page="1" pageScale="1" pageWidth="850" pageHeight="1100" math="0" shadow="0">
      <root>
        <mxCell id="0" />
        <mxCell id="1" parent="0" />
        <mxCell id="dBbubRWkXQ-3RMF_5VP_-1" value="BR 1" style="text;html=1;align=center;verticalAlign=middle;resizable=0;points=[];autosize=1;strokeColor=none;fillColor=none;" vertex="1" parent="1">
          <mxGeometry x="30" y="20" width="50" height="30" as="geometry" />
        </mxCell>
        <mxCell id="dBbubRWkXQ-3RMF_5VP_-2" value="LaunchPad" style="swimlane;whiteSpace=wrap;html=1;" vertex="1" parent="1">
          <mxGeometry x="10" y="90" width="150" height="50" as="geometry" />
        </mxCell>
        <mxCell id="dBbubRWkXQ-3RMF_5VP_-3" value="Launch" style="swimlane;whiteSpace=wrap;html=1;" vertex="1" parent="1">
          <mxGeometry x="320" y="90" width="120" height="50" as="geometry" />
        </mxCell>
        <mxCell id="dBbubRWkXQ-3RMF_5VP_-5" value="" style="html=1;rounded=0;endArrow=none;endFill=0;entryX=0;entryY=0.5;entryDx=0;entryDy=0;exitX=1;exitY=0.5;exitDx=0;exitDy=0;" edge="1" parent="1" source="dBbubRWkXQ-3RMF_5VP_-2" target="dBbubRWkXQ-3RMF_5VP_-3">
          <mxGeometry width="100" relative="1" as="geometry">
            <mxPoint x="160" y="120" as="sourcePoint" />
            <mxPoint x="250" y="120" as="targetPoint" />
          </mxGeometry>
        </mxCell>
        <mxCell id="dBbubRWkXQ-3RMF_5VP_-6" value="" style="html=1;rounded=0;endArrow=classicThin;endFill=1;strokeWidth=1;" edge="1" parent="1">
          <mxGeometry width="100" relative="1" as="geometry">
            <mxPoint x="210" y="90" as="sourcePoint" />
            <mxPoint x="270" y="90" as="targetPoint" />
          </mxGeometry>
        </mxCell>
        <mxCell id="dBbubRWkXQ-3RMF_5VP_-7" value="&lt;font style=&quot;font-size: 8px;&quot;&gt;hosts&lt;/font&gt;" style="edgeLabel;html=1;align=center;verticalAlign=middle;resizable=0;points=[];" vertex="1" connectable="0" parent="dBbubRWkXQ-3RMF_5VP_-6">
          <mxGeometry x="-0.0952" y="1" relative="1" as="geometry">
            <mxPoint y="-9" as="offset" />
          </mxGeometry>
        </mxCell>
        <mxCell id="dBbubRWkXQ-3RMF_5VP_-8" value="&lt;font style=&quot;font-size: 8px;&quot;&gt;1...*&lt;/font&gt;" style="text;html=1;align=center;verticalAlign=middle;resizable=0;points=[];autosize=1;strokeColor=none;fillColor=none;" vertex="1" parent="1">
          <mxGeometry x="280" y="90" width="40" height="30" as="geometry" />
        </mxCell>
        <mxCell id="dBbubRWkXQ-3RMF_5VP_-9" value="&lt;font style=&quot;font-size: 8px;&quot;&gt;1...1&lt;/font&gt;" style="text;html=1;align=center;verticalAlign=middle;resizable=0;points=[];autosize=1;strokeColor=none;fillColor=none;" vertex="1" parent="1">
          <mxGeometry x="160" y="90" width="40" height="30" as="geometry" />
        </mxCell>
      </root>
    </mxGraphModel>
  </diagram>
</mxfile>
